<svg width="42" height="42" viewBox="0 0 42 42" fill="none" xmlns="http://www.w3.org/2000/svg">
<ellipse cx="21.4464" cy="21" rx="20.5333" ry="20.5333" fill="#43A047"/>
<path fill-rule="evenodd" clip-rule="evenodd" d="M30.2671 20.922C30.068 23.6319 30.7364 27.2399 29.8738 29.2966C25.2027 29.9721 17.7847 29.9721 13.1158 29.2966C12.26 27.2989 12.9191 23.7723 12.714 21.1276C11.9718 20.7712 10.6221 21.0445 10.4694 20.1061C10.2177 18.0856 12.0938 18.1861 12.714 17.0398C12.7884 15.4265 12.4497 13.3758 13.1158 12.3516C14.4766 11.9674 15.1316 11.9193 16.3872 12.3516C16.7361 12.6789 16.8934 13.201 16.7996 13.9829C18.8179 13.8537 19.2392 10.9166 21.4901 10.9166C22.7738 10.9166 26.2813 14.1421 27.4151 15.0007C29.2558 16.3801 35.8068 20.2432 30.2671 20.922Z" stroke="white" stroke-width="2"/>
<rect x="18.7783" y="24.7198" width="10.1666" height="2.33137" rx="1.16568" transform="rotate(-51.4448 18.7783 24.7198)" fill="white"/>
<rect x="20.3252" y="26.1559" width="6.45295" height="2.33137" rx="1.16568" transform="rotate(-131.769 20.3252 26.1559)" fill="white"/>
</svg>
