<svg width="42" height="42" viewBox="0 0 42 42" fill="none" xmlns="http://www.w3.org/2000/svg">
<circle opacity="1" cx="20.7796" cy="21.0833" r="20.3333" fill="#6D6E71"/>
<path fill-rule="evenodd" clip-rule="evenodd" d="M28.2313 21.1553C28.0548 23.5568 28.6471 26.7542 27.8827 28.5768C23.7432 29.1755 17.1693 29.1755 13.0318 28.5768C12.2733 26.8065 12.8575 23.6812 12.6757 21.3375C12.0179 21.0216 10.8219 21.2638 10.6865 20.4322C10.4634 18.6416 12.126 18.7307 12.6757 17.7148C12.7416 16.2852 12.4414 14.4678 13.0318 13.5601C14.2377 13.2197 14.8181 13.177 15.9309 13.5601C16.2401 13.8502 16.3794 14.3128 16.2964 15.0058C18.0849 14.8913 18.4583 12.2885 20.4531 12.2885C21.5907 12.2885 24.699 15.1469 25.7038 15.9078C27.3351 17.1302 33.1405 20.5537 28.2313 21.1553Z" stroke="#FFFFFF" stroke-width="2"/>
</svg>
